<?xml version="1.0" standalone="no"?>
<!DOCTYPE svg PUBLIC "-//W3C//DTD SVG 20010904//EN"
 "http://www.w3.org/TR/2001/REC-SVG-20010904/DTD/svg10.dtd">
<svg version="1.0" xmlns="http://www.w3.org/2000/svg"
 width="16.000000pt" height="16.000000pt" viewBox="0 0 16.000000 16.000000"
 preserveAspectRatio="xMidYMid meet">
<g transform="translate(0.000000,16.000000) scale(0.100000,-0.100000)"
fill="#000000" stroke="none">
<path d="M31 151 c-7 -5 -10 -14 -6 -20 5 -9 10 -7 19 5 12 15 14 15 21 -7 6
-21 8 -22 12 -5 3 10 -1 22 -9 27 -16 11 -20 11 -37 0z"/>
<path d="M27 109 c-23 -14 -13 -28 17 -25 19 2 25 -3 29 -21 3 -15 -1 -27 -9
-30 -19 -7 -36 6 -30 23 3 9 -1 14 -13 14 -14 0 -17 -6 -13 -25 7 -38 37 -50
62 -25 19 19 25 18 20 -5 -1 -5 2 -7 6 -3 4 4 14 3 21 -4 16 -13 33 4 32 32 0
10 -2 11 -6 3 -2 -7 -9 -13 -14 -13 -6 0 -7 6 -3 13 4 6 4 9 -1 5 -12 -11 -45
11 -45 30 0 17 -18 42 -29 42 -4 0 -14 -5 -24 -11z"/>
<path d="M96 84 c-10 -25 -7 -28 12 -12 9 9 26 18 37 21 13 3 10 5 -11 6 -21
1 -34 -5 -38 -15z"/>
</g>
</svg>
